<svg width="79" height="79" viewBox="0 0 79 79" fill="none" xmlns="http://www.w3.org/2000/svg">
<path d="M38.7347 41.9688C39.232 42.131 39.768 42.131 40.2653 41.9688C44.4049 40.6021 48 37.9492 50.5267 34.3967C53.0534 30.8442 54.3798 26.5777 54.3125 22.2188C54.3534 17.8809 53.0148 13.6421 50.49 10.1144C47.9651 6.58675 44.3846 3.95261 40.2653 2.59223C39.7698 2.41913 39.2302 2.41913 38.7347 2.59223C34.6154 3.95261 31.0349 6.58675 28.51 10.1144C25.9852 13.6421 24.6466 17.8809 24.6875 22.2188C24.6202 26.5777 25.9466 30.8442 28.4733 34.3967C31 37.9492 34.595 40.6021 38.7347 41.9688Z" fill="#FF005C"/>
<path d="M22.2187 36.2166C19.7416 34.1484 16.6734 32.9174 13.4537 32.7001C10.234 32.4828 7.02817 33.2903 4.29562 35.0069C3.85344 35.2967 3.51594 35.7207 3.3328 36.2166C2.22456 39.2493 2.10541 42.5552 2.99246 45.6598C3.8795 48.7645 5.72714 51.5084 8.2703 53.4979C11.064 55.7646 14.5477 57.01 18.1453 57.0282C21.0019 56.9962 23.7883 56.1388 26.1687 54.5594C26.6068 54.2761 26.9439 53.8612 27.1316 53.3744C28.2062 50.3596 28.3103 47.0839 27.4292 44.0069C26.5482 40.9299 24.7262 38.2058 22.2187 36.2166Z" fill="#FF005C"/>
<path d="M50.0662 58.8303C48.7346 57.9714 47.7136 56.7081 47.1531 55.2259L41.9687 59.25V46.4866H41.7712C41.0417 46.7481 40.2748 46.8898 39.5 46.9063C38.7301 46.902 37.965 46.7856 37.2287 46.5606H37.0312V59.25L31.8716 55.2259C31.3046 56.7116 30.2746 57.9754 28.9337 58.8303L28.7609 58.9538L37.0312 65.3972V74.0625C37.0312 74.7173 37.2913 75.3452 37.7543 75.8082C38.2173 76.2712 38.8452 76.5313 39.5 76.5313C40.1547 76.5313 40.7827 76.2712 41.2457 75.8082C41.7086 75.3452 41.9687 74.7173 41.9687 74.0625V65.3972L50.2637 58.9538L50.0662 58.8303Z" fill="#FF005C"/>
<path d="M75.5684 36.2165C75.3853 35.7206 75.0478 35.2966 74.6056 35.0069C71.8583 33.3609 68.671 32.6002 65.4764 32.8282C62.2819 33.0561 59.2349 34.2616 56.749 36.281C54.2632 38.3003 52.4591 41.0358 51.5815 44.1159C50.704 47.196 50.7955 50.4715 51.8438 53.4978C52.0314 53.9846 52.3685 54.3995 52.8066 54.6828C55.187 56.2622 57.9734 57.1196 60.83 57.1515C64.4276 57.1334 67.9113 55.8879 70.705 53.6212C73.261 51.6142 75.1105 48.8447 75.9851 45.7148C76.8597 42.585 76.7138 39.2578 75.5684 36.2165Z" fill="#FF005C"/>
</svg>
